<svg width="256" height="256" viewBox="0 0 256 256" xmlns="http://www.w3.org/2000/svg" role="img" aria-label="Avatar 03">
  <defs>
    <linearGradient id="bg" x1="0" x2="1" y1="0" y2="1">
      <stop offset="0%" stop-color="#7c3aed"/>
      <stop offset="100%" stop-color="#4338ca"/>
    </linearGradient>
    <radialGradient id="shine" cx="20%" cy="12%" r="65%">
      <stop offset="0%" stop-color="#ffffff" stop-opacity="0.32"/>
      <stop offset="100%" stop-color="#ffffff" stop-opacity="0"/>
    </radialGradient>
  </defs>
  <rect width="256" height="256" rx="56" fill="url(#bg)"/>
  <circle cx="128" cy="93" r="44" fill="#eebf96"/>
  <path d="M58 210c10-39 35-62 70-62 36 0 61 23 70 62" fill="#ddd6fe"/>
  <ellipse cx="111" cy="92" rx="4.2" ry="5" fill="#0f172a"/>
  <ellipse cx="145" cy="92" rx="4.2" ry="5" fill="#0f172a"/>
  <ellipse cx="98" cy="104" rx="7" ry="4" fill="#fecdd3" fill-opacity="0.45"/>
  <ellipse cx="158" cy="104" rx="7" ry="4" fill="#fecdd3" fill-opacity="0.45"/>
  <path d="M110 115c7 7 29 7 36 0" stroke="#7f1d1d" stroke-width="3" stroke-linecap="round" fill="none"/>
  <path d="M85 84c7-23 26-35 45-35 24 0 42 13 45 36-20-11-40-12-61-5-14 5-27 6-29 4z" fill="#1f2937"/>
  <rect x="0" y="0" width="256" height="256" rx="56" fill="url(#shine)"/>
</svg>
